<svg xmlns="http://www.w3.org/2000/svg" xmlns:xlink="http://www.w3.org/1999/xlink" width="684" height="241.396" viewBox="0 0 684 241.396"><path fill="#E45625" d="M0 0h241.396v241.396H0z"/><path d="M146.742 110.28l-20.946 42.335H115.49L94.654 110.28v48.762h-17.29V81.578h23.385l19.948 42.555 20.06-42.555h23.272v77.464h-17.288"/><defs><path id="a" d="M0 0h684v241.396H0z"/></defs><clipPath id="b"><use xlink:href="#a" overflow="visible"/></clipPath><path clip-path="url(#b)" fill="#FFF" d="M357.194 118.98c2.067-2.328 3.104-5.726 3.104-10.196s-1.35-7.648-4.045-9.53c-2.7-1.885-6.89-2.827-12.58-2.827h-9.862v26.043h11.637c5.763 0 9.678-1.162 11.747-3.49m12.69-30.477c5.43 4.618 8.146 11.71 8.146 21.278 0 9.57-2.79 16.568-8.367 21.002-5.58 4.434-14.093 6.648-25.544 6.648H333.81v21.61h-17.29V81.58H343.9c11.892 0 20.556 2.31 25.986 6.925M444.224 139.04c2.882 3.584 6.76 5.374 11.637 5.374 4.877 0 8.736-1.79 11.582-5.375 2.844-3.583 4.267-8.48 4.267-14.685V81.577h17.288v43.332c0 11.23-3.104 19.856-9.31 25.877-6.207 6.022-14.148 9.03-23.827 9.03-9.68 0-17.64-3.027-23.882-9.085-6.244-6.058-9.365-14.667-9.365-25.823V81.576h17.29v42.778c-.002 6.206 1.44 11.102 4.32 14.684M539.697 159.042V81.578h17.29v62.06h33.025v15.404M633.687 159.042V81.578h17.29v62.06H684v15.404"/></svg>